<mxfile host="app.diagrams.net" modified="2022-11-28T06:56:44.042Z" agent="5.0 (Windows NT 10.0; Win64; x64) AppleWebKit/537.36 (KHTML, like Gecko) Chrome/107.0.0.0 Safari/537.36" version="20.6.0" etag="4-bAN9kGzKml2YmozHGn" type="github">
  <diagram id="p8lEQfj0Wyr8JSXRAtLH" name="Page-1">
    <mxGraphModel dx="539" dy="487" grid="1" gridSize="10" guides="1" tooltips="1" connect="1" arrows="1" fold="1" page="1" pageScale="1" pageWidth="827" pageHeight="1169" math="0" shadow="0">
      <root>
        <mxCell id="0" />
        <mxCell id="1" parent="0" />
        <mxCell id="yy5XVwhqXjzSVsF5RALL-1" value="Scratch Format" style="shape=process;whiteSpace=wrap;html=1;backgroundOutline=1;" vertex="1" parent="1">
          <mxGeometry x="130" y="340" width="120" height="60" as="geometry" />
        </mxCell>
        <mxCell id="yy5XVwhqXjzSVsF5RALL-2" value="Scratch Format data - any tracker" style="rounded=0;whiteSpace=wrap;html=1;fillColor=#dae8fc;strokeColor=#6c8ebf;" vertex="1" parent="1">
          <mxGeometry x="250" y="50" width="120" height="40" as="geometry" />
        </mxCell>
        <mxCell id="yy5XVwhqXjzSVsF5RALL-3" value="&lt;font style=&quot;font-size: 24px;&quot;&gt;&lt;b&gt;LEGEND&lt;/b&gt;&lt;/font&gt;" style="text;html=1;strokeColor=none;fillColor=none;align=center;verticalAlign=middle;whiteSpace=wrap;rounded=0;" vertex="1" parent="1">
          <mxGeometry x="10" width="100" height="30" as="geometry" />
        </mxCell>
        <mxCell id="yy5XVwhqXjzSVsF5RALL-4" value="Data; excel or csv" style="rounded=0;whiteSpace=wrap;html=1;fillColor=#dae8fc;strokeColor=#6c8ebf;" vertex="1" parent="1">
          <mxGeometry x="10" y="40" width="120" height="40" as="geometry" />
        </mxCell>
        <mxCell id="yy5XVwhqXjzSVsF5RALL-5" value="&lt;font style=&quot;font-size: 12px;&quot;&gt;Method&lt;br&gt;&lt;/font&gt;" style="rhombus;whiteSpace=wrap;html=1;fontSize=24;fillColor=#d5e8d4;strokeColor=#82b366;" vertex="1" parent="1">
          <mxGeometry x="20" y="100" width="100" height="100" as="geometry" />
        </mxCell>
        <mxCell id="yy5XVwhqXjzSVsF5RALL-6" value="SQL Table" style="shape=cylinder3;whiteSpace=wrap;html=1;boundedLbl=1;backgroundOutline=1;size=15;fontSize=12;fillColor=#fff2cc;strokeColor=#d6b656;" vertex="1" parent="1">
          <mxGeometry x="40" y="230" width="60" height="80" as="geometry" />
        </mxCell>
        <mxCell id="yy5XVwhqXjzSVsF5RALL-7" value="&lt;font style=&quot;font-size: 12px;&quot;&gt;Import SQL Data&lt;/font&gt;" style="rhombus;whiteSpace=wrap;html=1;fontSize=24;fillColor=#d5e8d4;strokeColor=#82b366;" vertex="1" parent="1">
          <mxGeometry x="370" y="140" width="130" height="80" as="geometry" />
        </mxCell>
        <mxCell id="yy5XVwhqXjzSVsF5RALL-8" value="Any Tracker" style="shape=cylinder3;whiteSpace=wrap;html=1;boundedLbl=1;backgroundOutline=1;size=15;fontSize=12;fillColor=#fff2cc;strokeColor=#d6b656;" vertex="1" parent="1">
          <mxGeometry x="570" y="40" width="60" height="80" as="geometry" />
        </mxCell>
        <mxCell id="yy5XVwhqXjzSVsF5RALL-9" value="" style="endArrow=classic;html=1;rounded=0;fontSize=12;entryX=0;entryY=0.5;entryDx=0;entryDy=0;exitX=0.5;exitY=1;exitDx=0;exitDy=0;" edge="1" parent="1" source="yy5XVwhqXjzSVsF5RALL-2" target="yy5XVwhqXjzSVsF5RALL-7">
          <mxGeometry width="50" height="50" relative="1" as="geometry">
            <mxPoint x="350" y="370" as="sourcePoint" />
            <mxPoint x="400" y="320" as="targetPoint" />
            <Array as="points">
              <mxPoint x="310" y="180" />
            </Array>
          </mxGeometry>
        </mxCell>
        <mxCell id="yy5XVwhqXjzSVsF5RALL-11" value="&lt;span style=&quot;font-size: 12px;&quot;&gt;Gap Fill Function&lt;/span&gt;" style="rhombus;whiteSpace=wrap;html=1;fontSize=24;fillColor=#d5e8d4;strokeColor=#82b366;" vertex="1" parent="1">
          <mxGeometry x="385" y="260" width="100" height="90" as="geometry" />
        </mxCell>
        <mxCell id="yy5XVwhqXjzSVsF5RALL-12" value="" style="endArrow=classic;html=1;rounded=0;fontSize=12;entryX=0.5;entryY=0;entryDx=0;entryDy=0;exitX=0.5;exitY=1;exitDx=0;exitDy=0;" edge="1" parent="1" source="yy5XVwhqXjzSVsF5RALL-7" target="yy5XVwhqXjzSVsF5RALL-11">
          <mxGeometry width="50" height="50" relative="1" as="geometry">
            <mxPoint x="280" y="200" as="sourcePoint" />
            <mxPoint x="355" y="315" as="targetPoint" />
            <Array as="points" />
          </mxGeometry>
        </mxCell>
        <mxCell id="yy5XVwhqXjzSVsF5RALL-13" value="&lt;span style=&quot;font-size: 12px;&quot;&gt;Data Exporter&lt;/span&gt;" style="rhombus;whiteSpace=wrap;html=1;fontSize=24;fillColor=#d5e8d4;strokeColor=#82b366;" vertex="1" parent="1">
          <mxGeometry x="385" y="400" width="100" height="90" as="geometry" />
        </mxCell>
        <mxCell id="yy5XVwhqXjzSVsF5RALL-14" value="" style="endArrow=classic;html=1;rounded=0;fontSize=12;entryX=0.5;entryY=0;entryDx=0;entryDy=0;" edge="1" parent="1" source="yy5XVwhqXjzSVsF5RALL-11" target="yy5XVwhqXjzSVsF5RALL-13">
          <mxGeometry width="50" height="50" relative="1" as="geometry">
            <mxPoint x="375" y="320" as="sourcePoint" />
            <mxPoint x="425" y="270" as="targetPoint" />
          </mxGeometry>
        </mxCell>
        <mxCell id="yy5XVwhqXjzSVsF5RALL-15" value="Tracker" style="shape=cylinder3;whiteSpace=wrap;html=1;boundedLbl=1;backgroundOutline=1;size=15;fontSize=12;fillColor=#fff2cc;strokeColor=#d6b656;" vertex="1" parent="1">
          <mxGeometry x="405" y="540" width="60" height="80" as="geometry" />
        </mxCell>
        <mxCell id="yy5XVwhqXjzSVsF5RALL-16" value="" style="endArrow=classic;html=1;rounded=0;fontSize=12;" edge="1" parent="1" source="yy5XVwhqXjzSVsF5RALL-13" target="yy5XVwhqXjzSVsF5RALL-15">
          <mxGeometry width="50" height="50" relative="1" as="geometry">
            <mxPoint x="445" y="360" as="sourcePoint" />
            <mxPoint x="445" y="410" as="targetPoint" />
          </mxGeometry>
        </mxCell>
      </root>
    </mxGraphModel>
  </diagram>
</mxfile>
